Coordinates
version=1
nRows=27
nColumns=38
inDegrees=no

Units are S.I. units (second, meters, Newtons, ...)
If the header above contains a line with 'inDegrees', this indicates whether rotational values are in degrees (yes) or radians (no).

endheader
time	pelvis_tilt	pelvis_list	pelvis_rotation	pelvis_tx	pelvis_ty	pelvis_tz	hip_flexion_r	hip_adduction_r	hip_rotation_r	knee_angle_r	ankle_angle_r	subtalar_angle_r	mtp_angle_r	hip_flexion_l	hip_adduction_l	hip_rotation_l	knee_angle_l	ankle_angle_l	subtalar_angle_l	mtp_angle_l	lumbar_extension	lumbar_bending	lumbar_rotation	arm_flex_r	arm_add_r	arm_rot_r	elbow_flex_r	pro_sup_r	wrist_flex_r	wrist_dev_r	arm_flex_l	arm_add_l	arm_rot_l	elbow_flex_l	pro_sup_l	wrist_flex_l	wrist_dev_l
0	0.123255	1.39552	1.45203	0.964257	-0.234497	1.01754	-0.0771835	-0.023671	-0.160117	0.527363	-0.239958	0	0	0.468603	-0.00593776	-0.232956	0.208336	-0.26305	0	0	0.0585717	-0.0105468	0.0632823	0.0522425	-0.3584	0.464423	0.707347	1.41633	0	0	-0.256881	-0.0662269	-0.52055	0.561122	1.13491	0	0
0.01	0.0751272	1.39369	1.49903	0.963217	-0.220614	1.01856	-0.0589422	-0.0400097	-0.14541	0.571666	-0.27641	0	0	0.461684	0.00362518	-0.202731	0.217415	-0.257856	0	0	0.0648975	-0.0227403	0.0593083	0.0485915	-0.348087	0.461126	0.689831	1.41516	0	0	-0.257212	-0.0688727	-0.530068	0.552159	1.13945	0	0
0.02	0.0267531	1.39281	1.546	0.962201	-0.206941	1.01965	-0.0396329	-0.0559995	-0.130827	0.618148	-0.316791	0	0	0.45677	0.012276	-0.187442	0.236067	-0.245493	0	0	0.068711	-0.0352279	0.0543832	0.0460778	-0.338456	0.459494	0.673224	1.41616	0	0	-0.258086	-0.0715342	-0.539179	0.545242	1.14133	0	0
0.03	-0.0206284	1.39374	1.59134	0.961251	-0.193537	1.02084	-0.0199652	-0.070892	-0.115622	0.66624	-0.357484	0	0	0.450907	0.0207265	-0.182026	0.25768	-0.230053	0	0	0.0689191	-0.0473672	0.0497523	0.0442521	-0.330204	0.458992	0.658469	1.41747	0	0	-0.258594	-0.0739378	-0.54811	0.540249	1.14205	0	0
0.04	-0.0633567	1.39413	1.63109	0.960335	-0.180474	1.02184	0.00293783	-0.0842126	-0.100158	0.716306	-0.399715	0	0	0.445781	0.0286075	-0.182738	0.279648	-0.213867	0	0	0.0686341	-0.0580091	0.0459138	0.0423308	-0.324031	0.459996	0.64625	1.41867	0	0	-0.259158	-0.0756024	-0.557435	0.537018	1.14304	0	0
0.05	-0.0969948	1.39285	1.66045	0.959416	-0.167781	1.02248	0.0302332	-0.0955434	-0.0851512	0.767053	-0.448918	0	0	0.441597	0.0350697	-0.187523	0.299355	-0.197663	0	0	0.0695074	-0.0662563	0.0436349	0.0391293	-0.320304	0.461127	0.637766	1.41725	0	0	-0.259917	-0.0762372	-0.566677	0.53549	1.14495	0	0
0.06	-0.114774	1.39013	1.67204	0.958674	-0.155384	1.02281	0.0613731	-0.102885	-0.0683806	0.816765	-0.50376	0	0	0.437445	0.0386455	-0.194146	0.314667	-0.181581	0	0	0.0717465	-0.0708126	0.0433924	0.0351158	-0.318765	0.462738	0.632086	1.4132	0	0	-0.260947	-0.0757539	-0.575731	0.535149	1.14759	0	0
0.07	-0.117427	1.38766	1.66678	0.958144	-0.143149	1.02314	0.0935868	-0.105962	-0.0503806	0.864146	-0.557346	0	0	0.431545	0.0394455	-0.200921	0.326377	-0.164956	0	0	0.0739539	-0.0717845	0.0451479	0.0314024	-0.318806	0.466523	0.626853	1.40856	0	0	-0.261635	-0.0745861	-0.584066	0.53461	1.15089	0	0
0.08	-0.109233	1.38639	1.6501	0.957777	-0.130946	1.02371	0.125004	-0.106469	-0.0352477	0.908859	-0.602627	0	0	0.423278	0.0383488	-0.206435	0.335554	-0.148508	0	0	0.0751177	-0.0699677	0.0470718	0.0288235	-0.319335	0.472496	0.620536	1.40277	0	0	-0.262148	-0.0730143	-0.591965	0.53329	1.15459	0	0
0.09	-0.0938798	1.38598	1.62602	0.957469	-0.118793	1.02457	0.155295	-0.104925	-0.0210187	0.950906	-0.623553	0	0	0.412736	0.0356932	-0.211524	0.340942	-0.135137	0	0	0.0757576	-0.0660531	0.0487562	0.0273858	-0.319834	0.479933	0.612396	1.39689	0	0	-0.262719	-0.0715194	-0.597789	0.530699	1.1585	0	0
0.1	-0.0750422	1.38548	1.59862	0.957115	-0.106632	1.02558	0.184411	-0.101766	-0.00605351	0.989755	-0.62143	0	0	0.400594	0.0319836	-0.216599	0.341628	-0.123819	0	0	0.0773234	-0.0610603	0.0500136	0.026662	-0.320355	0.489738	0.602318	1.38957	0	0	-0.263933	-0.069915	-0.603248	0.52727	1.16283	0	0
0.11	-0.0579623	1.38518	1.57466	0.95661	-0.0944634	1.02684	0.2115	-0.0986116	0.00688126	1.02539	-0.597734	0	0	0.386729	0.0283778	-0.222526	0.338669	-0.115315	0	0	0.0792542	-0.0565586	0.0497827	0.0271229	-0.320464	0.50331	0.589295	1.37973	0	0	-0.265109	-0.0686322	-0.609312	0.522601	1.16741	0	0
0.12	-0.0417026	1.38567	1.55493	0.955822	-0.0824644	1.02843	0.236354	-0.0966742	0.0136397	1.05701	-0.565002	0	0	0.371266	0.0254542	-0.226656	0.33293	-0.111266	0	0	0.0801385	-0.0526474	0.0468336	0.0287163	-0.319682	0.518131	0.573778	1.37048	0	0	-0.265346	-0.0680947	-0.614662	0.516546	1.17062	0	0
0.13	-0.0248222	1.38823	1.53856	0.954711	-0.0703277	1.03034	0.257389	-0.0956049	0.0103409	1.0843	-0.574728	0	0	0.352863	0.0233849	-0.227944	0.325085	-0.110186	0	0	0.0789262	-0.0490872	0.040538	0.0296678	-0.318337	0.53081	0.558162	1.3637	0	0	-0.265615	-0.0679919	-0.619447	0.51013	1.17157	0	0
0.14	-0.0117506	1.39011	1.52845	0.953268	-0.0581835	1.0322	0.277484	-0.0970121	0.0115009	1.10782	-0.486851	0	0	0.335092	0.0231192	-0.227583	0.316792	-0.110532	0	0	0.0788544	-0.0464597	0.0306035	0.0317102	-0.317774	0.549226	0.542061	1.35299	0	0	-0.267187	-0.0672678	-0.627128	0.504003	1.17245	0	0
0.15	0.0114571	1.39489	1.51072	0.951754	-0.0458911	1.03436	0.293375	-0.0960464	0.00140034	1.1277	-0.490216	0	0	0.313857	0.021905	-0.227279	0.308964	-0.110798	0	0	0.0753543	-0.0423732	0.0208151	0.0295701	-0.317337	0.556277	0.530293	1.34923	0	0	-0.268189	-0.0675731	-0.631096	0.498273	1.1719	0	0
0.16	0.0328133	1.39599	1.49563	0.950002	-0.0340129	1.03606	0.31226	-0.0966534	-0.000672419	1.14047	-0.414828	0	0	0.297651	0.0220359	-0.223944	0.303967	-0.110478	0	0	0.0750467	-0.038831	0.00876427	0.0285118	-0.317908	0.567302	0.519756	1.34334	0	0	-0.271111	-0.0666846	-0.637936	0.49551	1.17207	0	0
0.17	0.0613007	1.39688	1.47432	0.948235	-0.0221425	1.03771	0.330945	-0.0953721	-0.00815306	1.14964	-0.378266	0	0	0.281398	0.0211119	-0.219975	0.299597	-0.109409	0	0	0.0747171	-0.0341916	-0.00234848	0.0244451	-0.319287	0.572569	0.51245	1.33916	0	0	-0.274286	-0.0658477	-0.643492	0.494194	1.17305	0	0
0.18	0.0954216	1.39687	1.447	0.946583	-0.0103997	1.03927	0.349763	-0.0922038	-0.0148281	1.1533	-0.345573	0	0	0.26574	0.0189289	-0.214772	0.294744	-0.107757	0	0	0.0748048	-0.0285645	-0.0120096	0.0188618	-0.320897	0.57345	0.506737	1.33561	0	0	-0.277393	-0.0649506	-0.648444	0.493635	1.17363	0	0
0.19	0.132345	1.3958	1.41681	0.945078	0.00113476	1.04073	0.369013	-0.0875721	-0.0207941	1.15222	-0.314244	0	0	0.251176	0.0157552	-0.207909	0.288992	-0.10668	0	0	0.0751791	-0.0225883	-0.0208903	0.012673	-0.322193	0.571335	0.501832	1.33132	0	0	-0.280364	-0.0640332	-0.653471	0.494053	1.1734	0	0
0.2	0.171465	1.39447	1.38434	0.943722	0.0125756	1.04214	0.387559	-0.0818383	-0.0267461	1.14658	-0.28832	0	0	0.236369	0.0113841	-0.202028	0.281836	-0.106671	0	0	0.0751319	-0.0162959	-0.0289196	0.00592716	-0.323125	0.566847	0.497418	1.32678	0	0	-0.283147	-0.063272	-0.657385	0.495147	1.17254	0	0
0.21	0.209332	1.39262	1.35313	0.942465	0.0239342	1.0435	0.405576	-0.075713	-0.0324844	1.13662	-0.263074	0	0	0.221533	0.00640847	-0.198173	0.273382	-0.107731	0	0	0.0751368	-0.0102819	-0.03607	-0.00119618	-0.323455	0.560458	0.492836	1.32094	0	0	-0.285366	-0.0628852	-0.660271	0.496146	1.17176	0	0
0.22	0.242379	1.39067	1.32593	0.941299	0.0351264	1.0448	0.422843	-0.0692318	-0.0355332	1.12218	-0.23949	0	0	0.206442	0.00158381	-0.197679	0.263868	-0.10985	0	0	0.0747711	-0.00503184	-0.0414473	-0.0084045	-0.323424	0.552644	0.488233	1.31367	0	0	-0.286673	-0.0628041	-0.662147	0.497171	1.17089	0	0
0.23	0.269843	1.3887	1.30519	0.940158	0.0462463	1.04601	0.439035	-0.0637961	-0.0390473	1.10326	-0.218179	0	0	0.191212	-0.0024593	-0.198539	0.253674	-0.112944	0	0	0.0743028	-0.000864765	-0.0471588	-0.0153821	-0.322623	0.544684	0.483072	1.30565	0	0	-0.287424	-0.0631402	-0.66356	0.498119	1.1698	0	0
0.24	0.292951	1.38675	1.28994	0.939053	0.0573575	1.04707	0.454187	-0.0596751	-0.0441659	1.0804	-0.198304	0	0	0.175746	-0.00580125	-0.199693	0.243083	-0.116552	0	0	0.0739373	0.00221664	-0.0535709	-0.0222955	-0.320992	0.535981	0.477407	1.29571	0	0	-0.288144	-0.0639006	-0.664482	0.499696	1.16848	0	0
0.25	0.312561	1.38452	1.27917	0.937921	0.0683602	1.04794	0.468724	-0.0565681	-0.0505396	1.05369	-0.179977	0	0	0.160731	-0.00863502	-0.201422	0.232356	-0.120758	0	0	0.0736822	0.00460623	-0.0604558	-0.0287386	-0.318856	0.527748	0.47122	1.28439	0	0	-0.288581	-0.0650971	-0.664348	0.50193	1.16766	0	0
0.26	0.328869	1.38144	1.27168	0.936849	0.0792475	1.04854	0.483372	-0.05374	-0.0572699	1.02302	-0.163268	0	0	0.14669	-0.0113336	-0.203487	0.220852	-0.125234	0	0	0.0742508	0.00680891	-0.0670216	-0.0345917	-0.316553	0.522064	0.464341	1.2735	0	0	-0.288727	-0.0663919	-0.663812	0.504449	1.16704	0	0
